<svg xmlns="http://www.w3.org/2000/svg" viewBox="0 0 64 64" fill="none">
  <title>Flowsurface</title>
  <desc>Bullish candle with right-side volume profile rows (ask red / bid green) used as favicon.</desc>
  <defs>
    <style>
      :root { color-scheme: light dark; }
      @media (prefers-color-scheme: light) {
        .bg { fill: #f5f7f8; }
        .axis { opacity: .4; }
      }
    </style>
  </defs>
  <!-- Optional subtle rounded background for better contrast on dark tab bars -->
  <rect class="bg" x="1" y="1" width="62" height="62" rx="14" fill="#0e0d0d" />

  <!-- Candle -->
  <rect x="20" y="12" width="2" height="40" rx="1" fill="#51CDA0" />
  <rect x="18" y="20" width="6" height="24" rx="2" fill="#51CDA0" />

  <!-- Volume profile rows (uniform). Row height 4, gap 2. y: 14,20,26,32,38,44 -->
  <!-- Top wick row (ask only) -->
  <rect x="30" y="14" width="11" height="4" rx="1" fill="#C0504D" />
  <!-- Body rows -->
  <rect x="30" y="20" width="18" height="4" rx="1" fill="#C0504D" />
  <rect x="30" y="20" width="9" height="4" rx="1" fill="#51CDA0" />

  <rect x="30" y="26" width="22" height="4" rx="1" fill="#C0504D" />
  <rect x="30" y="26" width="12" height="4" rx="1" fill="#51CDA0" />

  <rect x="30" y="32" width="26" height="4" rx="1" fill="#C0504D" />
  <rect x="30" y="32" width="15" height="4" rx="1" fill="#51CDA0" />

  <rect x="30" y="38" width="19" height="4" rx="1" fill="#C0504D" />
  <rect x="30" y="38" width="10" height="4" rx="1" fill="#51CDA0" />

  <!-- Bottom wick row (bid only) -->
  <rect x="30" y="44" width="12" height="4" rx="1" fill="#51CDA0" />
</svg>
