<svg xmlns="http://www.w3.org/2000/svg" viewBox="0 0 64 64" fill="none">
  <title>Flowsurface</title>
  <desc>Light mode favicon: bullish candle with right-side volume profile (ask red / bid green).</desc>
  <rect x="1" y="1" width="62" height="62" rx="14" fill="#f5f7f8" />
  <!-- Candle (slightly darker green for light bg) -->
  <rect x="20" y="12" width="2" height="40" rx="1" fill="#43a681" />
  <rect x="18" y="20" width="6" height="24" rx="2" fill="#43a681" />
  <!-- Volume profile rows -->
  <rect x="30" y="14" width="11" height="4" rx="1" fill="#b34745" />
  <rect x="30" y="20" width="18" height="4" rx="1" fill="#b34745" />
  <rect x="30" y="20" width="9" height="4" rx="1" fill="#2f8e63" />
  <rect x="30" y="26" width="22" height="4" rx="1" fill="#b34745" />
  <rect x="30" y="26" width="12" height="4" rx="1" fill="#2f8e63" />
  <rect x="30" y="32" width="26" height="4" rx="1" fill="#b34745" />
  <rect x="30" y="32" width="15" height="4" rx="1" fill="#2f8e63" />
  <rect x="30" y="38" width="19" height="4" rx="1" fill="#b34745" />
  <rect x="30" y="38" width="10" height="4" rx="1" fill="#2f8e63" />
  <rect x="30" y="44" width="12" height="4" rx="1" fill="#2f8e63" />
</svg>
